<svg viewBox="0 0 104 121">
  <path d="m17.324 114.9c15.556-11.314 16.617-22.627 16.617-22.627l0.70711-41.366 23.688-0.35355s-4.9497 29.698 1.4142 42.073c6.364 12.374 16.263 19.092 16.263 19.092l-2.1213 3.182s-9.1924-7.4246-15.91-4.9497c-6.7175 2.4749-7.4246 7.4246-7.4246 7.4246l-8.4853 0.7071s6.8724-11.522-1.4142-9.8995c-3.6858 0.72165-8.7725 3.4516-11.667 6.7175z" style="fill:#572e11;paint-order:fill markers stroke;stroke-linecap:round;stroke-linejoin:round;stroke-width:2.4;stroke:#000"/>
  <path d="m28.638 54.801c-19.445 2.8284-26.87-1.7678-25.102-9.1924 1.7678-7.4246 12.728-9.1924 12.728-9.1924s-20.752-9.9146-14.849-21.213c5.3209-10.185 20.86-0.70711 20.86-0.70711s6.364-12.021 21.213-9.5459c6.5801 1.0967 9.8995 7.4246 9.8995 7.4246 6.6007-10.727 20.153-5.6569 21.213 0.35355 1.0607 6.0104 5.6569 6.0104 5.6569 6.0104s3.8891-13.789 17.324-2.8284c13.435 10.96-7.0711 27.224-7.0711 27.224s16.617 2.4749 6.0104 13.435c-10.965 11.331-22.274-4.9497-22.274-4.9497s1.5934 15.155-5.6569 14.496c-11.667-1.0607-17.324-8.4853-17.324-8.4853s1.4142 16.263-12.021 9.8995-10.607-12.728-10.607-12.728z" style="fill:#187719;paint-order:fill markers stroke;stroke-linecap:round;stroke-linejoin:round;stroke-width:2.4;stroke:#000"/>
</svg>